<svg preserveAspectRatio="none" overflow="visible" style="display: block;" width="22.5" height="22.5" viewBox="0 0 22.5 22.5" fill="none" xmlns="http://www.w3.org/2000/svg">
<g id="Icon L">
<path id="Icon" d="M16.875 6.5625H19.6875C19.9361 6.5625 20.1746 6.66127 20.3504 6.83709C20.5262 7.0129 20.625 7.25136 20.625 7.5V18.75C20.625 18.9986 20.5262 19.2371 20.3504 19.4129C20.1746 19.5887 19.9361 19.6875 19.6875 19.6875H2.8125C2.56386 19.6875 2.3254 19.5887 2.14959 19.4129C1.97377 19.2371 1.875 18.9986 1.875 18.75V3.75C1.875 3.50136 1.97377 3.2629 2.14959 3.08709C2.3254 2.91127 2.56386 2.8125 2.8125 2.8125H16.875V6.5625ZM3.75 8.4375V17.8125H18.75V8.4375H3.75ZM3.75 4.6875V6.5625H15V4.6875H3.75ZM14.0625 12.1875H16.875V14.0625H14.0625V12.1875Z" fill="white"/>
</g>
</svg>
