<svg preserveAspectRatio="none" overflow="visible" style="display: block;" width="234.506" height="46" viewBox="0 0 234.506 46" fill="none" xmlns="http://www.w3.org/2000/svg">
<g id="Vector">
<path fill-rule="evenodd" clip-rule="evenodd" d="M55.5759 1.13681C55.3814 5.35899 55.5074 10.5382 55.511 14.8353C60.9235 8.42408 69.9034 8.99331 74.1612 16.4781C74.6198 17.2829 74.9069 18.2217 75.2079 19.1027C76.8759 16.707 81.7622 10.2134 84.4568 9.43163C92.2764 7.16359 85.2171 19.398 88.7268 20.3051C93.4382 18.9836 98.2091 6.59072 103.352 4.02232C111.452 -0.023416 106.698 13.9839 108.785 17.4819C110.352 18.5302 111.975 15.8884 112.854 14.7773C112.985 10.4325 112.883 5.54669 112.885 1.16139L118.061 1.14626C117.92 5.32453 118.023 10.1501 118.01 14.3797C124.301 7.22959 135.246 10.2103 135.414 20.2049C135.449 22.3087 135.463 24.3996 135.458 26.5071L135.43 35.2279L130.383 35.2109C130.372 30.3266 130.535 25.1189 130.251 20.2402C130.126 18.1046 128.905 16.2866 127.037 15.2096C120.701 13.4857 117.915 17.7496 117.995 23.5038C118.05 27.379 118.017 31.3397 118.037 35.2223L112.897 35.2185L112.875 18.5879C111.255 21.2586 109.22 25.496 106.57 27.1688C106.079 27.4792 105.475 27.7114 104.899 27.494C102.433 26.5625 102.838 19.6971 101.985 17.3962C101.705 16.6417 101.217 15.7739 100.411 15.4862C94.4662 13.3644 86.1815 36.2613 80.9052 38.605C80.4041 38.8279 80.1005 38.8035 79.597 38.588C78.9693 38.3166 78.3478 37.607 78.2415 36.925C77.6714 33.271 84.2001 19.6941 82.8852 15.6104C82.4069 15.142 82.6884 15.2612 82.0074 15.2531C80.3598 16.0041 76.9946 20.0091 75.6793 21.5389C75.7376 26.1687 74.897 30.6522 70.9751 33.6223C68.5358 35.4419 65.4645 36.1978 62.4585 35.722C59.5168 35.274 57.3021 33.9489 55.5469 31.5402L55.4051 35.2279L50.4262 35.2147L50.4255 1.16328C52.1423 1.14581 53.8591 1.137 55.5759 1.13681ZM64.1599 31.2302C73.491 29.1762 72.3968 14.212 61.7905 15.0218C52.8066 17.1287 53.5366 31.7134 64.1599 31.2302Z" fill="white"/>
<path fill-rule="evenodd" clip-rule="evenodd" d="M180.58 10.5515C189.293 9.84599 194.288 16.1006 193.632 24.5682C193.391 27.6851 191.959 31.4361 189.36 33.369C184.259 37.1679 177.731 36.6995 173.602 31.6367C173.574 33.367 173.582 35.116 173.576 36.8482L173.557 46L168.475 45.9571L168.483 11.0645L173.463 11.0651L173.528 14.8505C175.591 12.3989 177.339 11.1052 180.58 10.5515ZM182.408 31.2044C191.255 29.0855 190.648 14.3487 179.844 15.0149C170.739 17.1681 171.656 32.143 182.408 31.2044Z" fill="white"/>
<path fill-rule="evenodd" clip-rule="evenodd" d="M33.6182 10.5518C40.5992 9.47645 47.122 14.2863 48.1567 21.2714C49.1911 28.2578 44.3422 34.7518 37.3494 35.7444C30.4141 36.7294 23.9846 31.9302 22.9584 25.0014C21.9326 18.0744 26.6951 11.6182 33.6182 10.5518ZM37.1427 31.2538C46.152 27.9713 44.497 13.959 33.8659 15.0354C25.2722 17.5339 26.2945 32.5233 37.1427 31.2538Z" fill="white"/>
<path fill-rule="evenodd" clip-rule="evenodd" d="M205.654 10.5648C206.543 10.4745 207.435 10.4538 208.326 10.5031C211.348 10.6769 214.174 12.0564 216.17 14.3326C218.832 17.3608 219.165 20.6672 218.903 24.4939C212.731 24.4252 206.407 24.4717 200.235 24.4996C200.984 28.3636 202.687 31.7389 207.453 31.5978C210.067 31.5178 211.449 30.1741 212.873 28.2245C213.209 27.7617 213.235 27.8969 213.797 27.8653C215.336 27.8765 216.817 27.8858 218.358 27.8319C217.903 28.9564 217.47 29.9697 216.791 30.9789C215.194 33.3931 212.683 35.0544 209.837 35.5823C206.47 36.2104 203.052 35.7515 200.195 33.7983C193.272 29.0626 193.355 16.3814 200.772 12.1434C202.412 11.2065 203.812 10.8563 205.654 10.5648ZM213.843 20.8642C212.973 16.4965 210.603 14.3631 205.972 14.7989C202.269 15.6994 200.984 17.2642 200.254 20.8995C203.018 20.9255 205.781 20.9327 208.545 20.9216C210.259 20.9123 212.144 20.9423 213.843 20.8642Z" fill="white"/>
<path d="M154.417 10.562C160.243 10.1137 164.621 11.9215 165.64 18.2536L160.764 18.2425C160.483 17.2555 160.305 16.7444 159.546 16.0028C158.029 14.5215 154.062 14.0108 152.585 15.7843C152.153 16.3039 151.967 16.9842 152.075 17.6514C152.813 22.3221 165.941 20.1717 166.109 27.5819C166.244 33.561 162.071 35.3583 157.005 35.8006C151.259 35.6557 147.365 33.7134 145.983 27.7548C147.716 27.7473 149.45 27.7213 151.185 27.6767C151.553 28.9722 151.811 29.4294 152.943 30.4014C155.326 32.444 161.976 32.2786 160.957 27.7957C160.283 25.8999 158.21 25.5412 156.546 25.0728C153.189 24.1286 147.896 23.2904 147.076 19.2015C146.054 14.0989 149.9 11.3121 154.417 10.562Z" fill="white"/>
<path d="M15.3157 1.16195L20.4826 1.14689C20.3305 7.03308 20.5023 12.9878 20.4666 19.0844C20.4233 26.4686 21.6232 34.9234 11.3978 35.7691C7.98746 36.0516 5.30255 35.2357 2.66484 32.8975C0.588922 30.5576 0.405071 28.6469 0 25.6955C1.69985 25.5951 3.44264 25.6174 5.14862 25.6156C5.54421 28.6432 6.36328 31.0166 9.86764 31.2304C12.7734 31.4051 14.88 30.1226 15.162 27.0838C15.4435 24.0525 15.3237 20.9653 15.318 17.9172L15.3157 1.16195Z" fill="white"/>
<path d="M232.989 10.5573C233.634 10.4767 233.548 10.406 234.1 10.6118C234.751 11.6312 234.431 14.4701 234.403 15.8319C227.979 15.891 225.979 17.948 226.064 24.5033C226.11 28.0086 226.105 31.711 226.086 35.22L220.976 35.2089L220.957 32.9451L220.957 11.0625L225.923 11.0621C225.939 12.4208 225.982 13.7976 226.016 15.1579C227.966 12.2377 229.594 11.2536 232.989 10.5573Z" fill="white"/>
<path d="M138.517 11.0631L143.629 11.0748C143.456 18.8837 143.613 27.3627 143.613 35.2208L138.519 35.219L138.517 11.0631Z" fill="white"/>
<path d="M140.068 0.159174C141.826 -0.400079 143.708 0.560811 144.284 2.31328C144.86 4.06557 143.918 5.9554 142.17 6.5496C140.399 7.15197 138.476 6.19348 137.891 4.41629C137.307 2.63928 138.285 0.726418 140.068 0.159174Z" fill="white"/>
</g>
</svg>
