<svg preserveAspectRatio="none" overflow="visible" style="display: block;" width="56.5022" height="57.6058" viewBox="0 0 56.5022 57.6058" fill="none" xmlns="http://www.w3.org/2000/svg">
<g id="image 10 [Vectorized]">
<path id="Vector" d="M16.2516 12.9717C16.8248 11.5295 18.1287 10.0957 19.4125 9.25909C20.5597 8.51153 22.2579 7.82598 23.6045 7.59619C28.3275 6.79017 33.7151 7.32917 37.0154 11.2015C37.2943 11.529 37.4624 11.8193 37.6989 12.1612C38.7314 13.3858 39.6899 14.1632 40.4494 15.6664C40.7663 16.2934 40.8605 16.6729 41.125 17.2997C41.248 17.5913 42.024 18.02 42.2892 18.2892C42.4739 18.4767 42.8171 18.8016 42.8883 19.095C43.1639 20.2927 42.9808 21.7188 43.0184 22.9403C43.0346 23.4655 42.5356 24.3253 42.1223 24.5599C40.9853 25.2053 41.0744 26.0288 40.6537 27.1414C40.4825 27.5942 40.0393 28.1371 39.9803 28.6409C39.9317 29.6615 39.9585 30.7484 39.9585 31.7736L39.9573 38.0064C39.9579 38.5632 40.0004 40.2445 39.9386 40.7198C39.9372 40.9134 39.9432 41.1722 39.9277 41.36C40.2611 41.6557 41.566 42.094 42.0379 42.3643C43.3058 43.0909 44.785 43.7012 45.9523 44.5962C47.2567 45.5964 47.8158 47.645 48.2795 49.1483C48.504 49.8762 48.5352 50.9306 48.8081 51.606H31.3685H28.6443H26.0621H23.4057H6C6.00921 51.5294 6.02109 51.4537 6.0356 51.378C6.43136 49.3338 7.14421 45.9439 8.82529 44.5846C9.66243 43.9078 11.3259 43.0876 12.3182 42.5876C12.8673 42.3146 13.4207 42.0504 13.9783 41.7952C14.23 41.6787 14.6386 41.5236 14.8482 41.3768L14.8815 41.353C14.8115 40.8503 14.8368 39.7835 14.8366 39.2316L14.8369 35.4648L14.836 29.3045C14.8351 28.2556 14.7982 26.9218 14.8494 25.891C14.776 25.6843 13.4968 25.1749 13.2013 24.9734C12.2164 24.3017 11.6818 23.6541 11.7721 22.392C11.8586 21.1842 11.4851 19.5727 12.231 18.5275C12.5344 18.1024 13.2642 17.8256 13.574 17.3947C13.963 16.6858 14.1355 15.9822 14.5646 15.2591C14.8122 14.8338 15.0916 14.4279 15.4005 14.0448C15.7051 13.6705 15.993 13.3866 16.2516 12.9717Z" fill="#5870A4"/>
<path id="Vector_2" d="M31.2094 33.8896C31.4448 34.0536 31.949 36.5488 32.0771 36.976C32.8203 37.5122 33.7382 38.402 34.5536 39.0122C35.0517 39.0471 39.0415 41.0112 39.9277 41.3596C40.2611 41.6553 41.566 42.0936 42.0379 42.364C43.3058 43.0906 44.785 43.7008 45.9523 44.5958C47.2567 45.596 47.8158 47.6446 48.2795 49.1479C48.504 49.8758 48.5352 50.9302 48.8081 51.6056H31.3685H28.6443H26.0621H23.4057H6C6.00921 51.529 6.02109 51.4533 6.0356 51.3776C6.43136 49.3334 7.14421 45.9435 8.82529 44.5843C9.66243 43.9074 11.3259 43.0873 12.3182 42.5873C12.8673 42.3142 13.4207 42.0501 13.9783 41.7948C14.23 41.6784 14.6386 41.5232 14.8482 41.3765L14.8815 41.3526C15.67 41.0195 19.8935 39.0093 20.2664 38.9826C20.7853 38.6169 22.209 37.4277 22.6487 36.9848C22.9068 36.8656 23.1176 34.6324 23.5447 33.9714C23.5461 33.973 23.5475 33.9746 23.549 33.9761C24.7547 34.8063 26.1076 35.4797 27.5983 35.4234C28.7148 35.3811 30.4728 34.698 31.2094 33.8896Z" fill="#145CF5"/>
<path id="Vector_3" d="M32.0771 36.9761C32.8203 37.5123 33.7382 38.4022 34.5536 39.0123C35.0517 39.0472 39.0415 41.0113 39.9277 41.3598C40.2611 41.6555 41.5661 42.0937 42.0379 42.3641C43.3058 43.0907 44.785 43.7009 45.9523 44.5959C47.2567 45.5961 47.8158 47.6447 48.2795 49.148C48.504 49.8759 48.5352 50.9303 48.8081 51.6057H31.3685H28.6443C28.9325 51.039 29.1566 49.54 29.3322 48.8248L31.085 41.3792L31.7489 38.4908C31.861 37.99 31.9505 37.4692 32.0771 36.9761Z" fill="#145CF5"/>
<path id="Vector_4" d="M32.0771 36.9761C32.8203 37.5123 33.7382 38.4022 34.5536 39.0123C35.4615 39.8901 37.0306 41.0924 38.0319 41.9438C38.9434 42.7188 40.5652 44.1297 41.4995 44.7669C40.5302 45.0675 39.6061 45.155 38.628 45.353C37.8737 45.5056 37.2038 45.6837 36.4355 45.8134C35.6512 45.9458 34.292 46.1654 33.5696 46.4585C33.1709 47.5378 32.7102 48.578 32.2526 49.6332C31.9825 50.2558 31.7007 51.0261 31.3685 51.6057H28.6443C28.9325 51.039 29.1566 49.54 29.3322 48.8248L31.085 41.3792L31.7489 38.4908C31.861 37.99 31.9505 37.4692 32.0771 36.9761Z" fill="#FEFEFE"/>
<path id="Vector_5" d="M31.2094 33.8896C31.4448 34.0536 31.949 36.5488 32.0771 36.976C31.9504 37.4691 31.861 37.9899 31.7489 38.4907L31.085 41.3791L29.3322 48.8246C29.1566 49.5399 28.9325 51.0388 28.6443 51.6056H26.0621C25.8456 50.81 25.7455 49.9686 25.5301 49.1838C25.2809 48.276 25.1154 47.3887 24.9085 46.4766L23.1449 38.9686C23.0238 38.446 22.8748 37.6051 22.7399 37.0613C22.7042 37.0314 22.6738 37.0059 22.6487 36.9848C22.9068 36.8656 23.1176 34.6324 23.5447 33.9714C23.5461 33.973 23.5475 33.9746 23.549 33.9761C24.7547 34.8063 26.1076 35.4797 27.5983 35.4234C28.7148 35.3811 30.4728 34.698 31.2094 33.8896Z" fill="#99AFDD"/>
<path id="Vector_6" d="M22.6487 36.9854C22.6738 37.0064 22.7042 37.0319 22.7399 37.0618C22.8748 37.6056 23.0238 38.4465 23.1449 38.9691L24.9085 46.4771C25.1154 47.3892 25.2809 48.2766 25.5301 49.1844C25.7455 49.9691 25.8456 50.8105 26.0621 51.6061H23.4057C23.1942 51.2596 22.959 50.636 22.7916 50.2412L21.7502 47.7796C21.5516 47.3079 21.3831 46.7614 21.0539 46.384C19.9356 46.0889 18.8726 45.8955 17.7333 45.7026C17.184 45.6096 16.6136 45.4375 16.0589 45.3286C15.1517 45.1506 14.1678 45.0665 13.2966 44.7639C14.5997 43.827 16.1126 42.4572 17.3854 41.4132C18.099 40.8278 19.6743 39.5808 20.2664 38.9831C20.7853 38.6174 22.209 37.4282 22.6487 36.9854Z" fill="#FEFEFE"/>
<path id="Vector_7" d="M16.2516 12.9717C16.8248 11.5295 18.1287 10.0957 19.4125 9.25909C20.5597 8.51153 22.2579 7.82598 23.6045 7.59619C28.3275 6.79017 33.7151 7.32917 37.0154 11.2015C37.2943 11.529 37.4624 11.8193 37.6989 12.1612C38.7314 13.3858 39.6899 14.1632 40.4494 15.6664C40.7662 16.2934 40.8605 16.6729 41.1249 17.2997C41.248 17.5913 42.024 18.02 42.2891 18.2892C42.4738 18.4767 42.8171 18.8016 42.8883 19.095C43.1639 20.2927 42.9808 21.7188 43.0184 22.9403C43.0346 23.4655 42.5356 24.3253 42.1223 24.5599C40.9853 25.2053 41.0744 26.0288 40.6537 27.1414C40.4825 27.5942 40.0393 28.1371 39.9803 28.6409C39.9317 29.6615 39.9584 30.7484 39.9585 31.7736L39.9572 38.0064C39.9579 38.5632 40.0004 40.2445 39.9386 40.7198C39.9372 40.9134 39.9432 41.1722 39.9277 41.36C39.0415 41.0116 35.0517 39.0474 34.5536 39.0125C33.7382 38.4024 32.8203 37.5126 32.0771 36.9763C31.949 36.5492 31.4448 34.054 31.2094 33.89L30.9432 33.8894C30.9336 33.8898 30.924 33.8903 30.9144 33.8907C29.5089 33.8093 27.6828 34.2465 26.547 33.198C25.148 31.9065 25.9276 29.4072 27.8528 29.2358C28.8812 29.155 29.9325 29.2056 30.962 29.1955C32.1226 29.1841 32.4985 29.4082 33.28 30.2085C33.8247 29.9926 35.1488 29.4221 35.3775 28.8937C35.6016 28.8555 35.879 28.6006 36.0374 28.4366C37.5797 26.8404 38.3279 25.0071 38.3073 22.7994C38.2789 19.7519 38.7173 17.6214 36.3312 15.2722C33.9382 12.9161 30.6871 12.0089 27.4122 12.0005C24.1542 11.9922 20.846 12.9227 18.4791 15.25C16.3229 17.37 16.4032 19.3752 16.4042 22.1211L16.4056 26.0362C15.9499 25.9988 15.358 25.8857 14.8954 25.8079L14.8494 25.891C14.776 25.6843 13.4967 25.1749 13.2013 24.9734C12.2164 24.3017 11.6818 23.6541 11.7721 22.392C11.8586 21.1842 11.4851 19.5727 12.231 18.5275C12.5344 18.1024 13.2641 17.8256 13.574 17.3947C13.963 16.6858 14.1355 15.9822 14.5646 15.2591C14.8121 14.8338 15.0915 14.4279 15.4005 14.0448C15.7051 13.6705 15.993 13.3866 16.2516 12.9717Z" fill="#BFD4FF"/>
<path id="Vector_8" d="M39.9114 28.5444C39.9485 29.5502 39.9224 30.6719 39.9221 31.6903L39.9202 37.3991L39.9197 39.5528C39.9197 39.8517 39.9057 40.4466 39.9386 40.7193C39.9372 40.9129 39.9432 41.1717 39.9277 41.3595C39.0415 41.011 35.0517 39.0469 34.5536 39.012C33.7382 38.4019 32.8203 37.512 32.0771 36.9758C31.949 36.5486 31.4448 34.0534 31.2094 33.8895L30.9432 33.8889C31.5047 33.8609 31.9251 33.7448 32.4569 33.6583C35.3246 33.1919 37.9916 31.4449 39.5867 29.0215C39.6913 28.8626 39.7945 28.7033 39.9114 28.5444Z" fill="#5870A4"/>
<path id="Vector_9" d="M16.2516 12.9717C16.8248 11.5295 18.1287 10.0957 19.4125 9.25909C20.5597 8.51153 22.2579 7.82598 23.6045 7.59619C28.3275 6.79017 33.7152 7.32917 37.0154 11.2015C37.2943 11.529 37.4624 11.8193 37.6989 12.1612C37.1748 12.0485 36.2853 11.2168 35.7405 10.9629C35.2742 10.7455 34.8119 10.4781 34.3239 10.2593C33.0481 9.72301 31.4966 9.22066 30.128 9.02329C26.1691 8.45233 22.0954 9.137 18.6461 11.1977C18.2643 11.4258 16.3017 12.9641 16.2516 12.9717Z" fill="#5870A4"/>
<path id="Vector_10" d="M31.7643 16.5718C33.4021 16.8145 35.5482 17.4985 36.5099 18.9212C36.8936 19.4889 36.7464 20.3895 36.7374 21.0482C36.7158 22.6239 36.6901 24.2437 36.3503 25.7871C36.2206 26.372 36.0576 26.9687 35.8939 27.5447C35.7799 27.9296 35.4824 28.4569 35.3857 28.8582L35.3775 28.8937C35.1488 29.4221 33.8247 29.9926 33.28 30.2085C32.4986 29.4081 32.1226 29.184 30.962 29.1955C29.9325 29.2056 28.8812 29.155 27.8528 29.2358C25.9276 29.4072 25.148 31.9065 26.547 33.198C27.6828 34.2465 29.5089 33.8093 30.9144 33.8906C30.924 33.8902 30.9336 33.8898 30.9432 33.8894L31.2094 33.89C30.4728 34.6983 28.7148 35.3815 27.5983 35.4237C26.1076 35.4801 24.7547 34.8067 23.5489 33.9764C23.5475 33.9749 23.5461 33.9733 23.5447 33.9718C23.4521 33.8513 22.502 33.0972 22.272 32.8667C20.2043 30.7943 18.8453 28.256 18.3444 25.3722C18.1233 24.0998 18.088 22.589 18.0626 21.3222C20.5375 21.3205 23.2056 21.4398 25.5916 20.7798C28.2208 20.0525 30.3775 19.0395 31.7643 16.5718Z" fill="white"/>
</g>
</svg>
