<svg preserveAspectRatio="none" overflow="visible" style="display: block;" width="56.1209" height="48.8672" viewBox="0 0 56.1209 48.8672" fill="none" xmlns="http://www.w3.org/2000/svg">
<g id="image 7 [Vectorized]">
<path id="Vector" d="M20.1276 7.83078C20.0478 6.7724 20.145 5.34852 20.1685 4.27485C20.1999 2.83842 22.5405 3.19187 23.5293 3.19282L27.6558 3.19394L31.8601 3.19214C32.6375 3.19213 33.4342 3.1701 34.2045 3.22051C35.4421 3.30149 35.343 4.69975 35.3369 5.58522C35.3318 6.33193 35.3194 7.09004 35.3689 7.82495L35.4102 7.82777C36.1015 7.8722 37.4414 7.8239 38.1946 7.82543L44.5995 7.82376C45.6827 7.82343 46.8493 7.76363 47.9142 7.91916C48.6042 8.01995 49.3764 8.95195 49.5143 9.62397C49.7052 10.5562 49.5907 11.5907 49.6188 12.5415C49.6579 14.4322 49.5644 16.4166 49.5969 18.295C48.4129 20.2141 47.4957 20.008 45.4426 20.003L41.4447 19.9975C41.0167 19.997 39.9166 19.9647 39.5296 20.0022L39.5221 23.2662C38.9352 23.2506 38.0019 23.1752 37.4602 23.3548C39.1379 27.1488 38.6658 30.4894 36.424 33.8857C35.6153 34.8839 35.2876 35.1848 34.3086 36.0031C34.7518 36.4776 35.5154 37.3457 36.0025 37.6907C35.8037 37.9435 35.7394 38.0209 35.7338 38.3423C35.7245 38.8667 37.1213 39.9703 37.1636 40.2705L37.091 40.3087C36.5775 40.4041 34.9652 40.367 34.3373 40.366L29.1089 40.3642L9.5271 40.3721C6.23706 40.3482 6.51828 38.2903 6.52072 35.7972L6.52234 31.487C6.52215 26.8728 6.47471 22.144 6.53618 17.535C6.497 17.3216 6.51828 15.7713 6.51924 15.4238C6.52606 13.9635 6.52372 12.503 6.51232 11.0426C6.51461 8.8222 7.04241 7.76535 9.44058 7.825C10.3505 7.84762 11.373 7.82419 12.2906 7.82448L20.1276 7.83078ZM22.7725 7.83521C23.1338 7.90451 25.0705 7.82796 25.5489 7.82787L30.5016 7.82863C30.8965 7.82872 32.3642 7.85912 32.6832 7.81698C32.6339 7.404 32.6856 6.29113 32.6963 5.84101C29.4235 5.73469 25.9737 5.92371 22.7218 5.81457C22.7294 6.45457 22.7066 7.21225 22.7725 7.83521Z" fill="white"/>
<path id="Vector_2" d="M20.1276 7.83078C20.0478 6.7724 20.145 5.34852 20.1685 4.27485C20.1999 2.83842 22.5405 3.19187 23.5293 3.19282L27.6558 3.19394L31.8601 3.19214C32.6375 3.19213 33.4342 3.1701 34.2045 3.22051C35.4421 3.30149 35.343 4.69975 35.3369 5.58522C35.3318 6.33193 35.3194 7.09004 35.3689 7.82495L35.4102 7.82777C36.1015 7.8722 37.4414 7.8239 38.1946 7.82543L44.5995 7.82376C45.6827 7.82343 46.8493 7.76363 47.9142 7.91916C48.6042 8.01995 49.3764 8.95195 49.5143 9.62397C49.7052 10.5562 49.5907 11.5907 49.6188 12.5415C49.6579 14.4322 49.5644 16.4166 49.5969 18.295C48.4129 20.2141 47.4957 20.008 45.4426 20.003L41.4447 19.9975C41.0167 19.997 39.9166 19.9647 39.5296 20.0022L39.5222 23.2662C38.9352 23.2506 38.0019 23.1752 37.4602 23.3548C37.1062 22.5613 36.3366 21.4866 35.7848 20.8346C35.9307 20.591 35.9045 20.3029 35.9067 20.0209C35.643 20.0264 35.1931 19.9772 35.0272 20.1032C30.8223 16.5222 25.649 16.6725 21.3845 20.0406C21.113 19.9711 20.48 19.9967 20.183 20.012C20.1759 20.3629 20.1237 20.8664 20.2889 21.1604C19.7317 21.8913 19.3259 22.4983 18.9085 23.3241C18.5868 23.2063 17.006 23.2494 16.5658 23.2556L16.5691 19.9797C15.0115 20.0009 13.4538 20.0084 11.8962 20.0021C10.9454 20.0025 9.99511 20.0104 9.04472 19.9893C7.84075 19.9625 7.34139 19.4274 6.59497 18.6137C6.5912 18.2857 6.60098 17.845 6.53618 17.535C6.497 17.3216 6.51828 15.7713 6.51924 15.4238C6.52606 13.9635 6.52372 12.503 6.51232 11.0426C6.51461 8.8222 7.04241 7.76535 9.44058 7.825C10.3505 7.84762 11.373 7.82419 12.2906 7.82448L20.1276 7.83078ZM22.7725 7.83521C23.1338 7.90451 25.0705 7.82796 25.5489 7.82787L30.5016 7.82863C30.8965 7.82872 32.3642 7.85912 32.6832 7.81698C32.6339 7.404 32.6856 6.29113 32.6963 5.84101C29.4235 5.73469 25.9737 5.92371 22.7218 5.81457C22.7294 6.45457 22.7066 7.21225 22.7725 7.83521Z" fill="#8AB0FF"/>
<path id="Vector_3" d="M20.1276 7.83078C20.0478 6.7724 20.145 5.34852 20.1685 4.27485C20.1999 2.83842 22.5405 3.19187 23.5293 3.19282L27.6558 3.19394L31.8601 3.19214C32.6375 3.19213 33.4342 3.1701 34.2045 3.22051C35.4421 3.30149 35.343 4.69975 35.3369 5.58522C35.3318 6.33193 35.3194 7.09004 35.3689 7.82495C34.8726 7.77833 33.2917 7.82366 32.6832 7.81698C32.6339 7.404 32.6856 6.29113 32.6963 5.84101C29.4235 5.73469 25.9737 5.92371 22.7218 5.81457C22.7294 6.45457 22.7066 7.21225 22.7725 7.83521C21.891 7.82295 21.0093 7.82147 20.1276 7.83078Z" fill="#0052FF"/>
<path id="Vector_4" d="M16.5869 16.6928C17.6736 16.7096 19.1142 16.735 20.1858 16.6874L20.183 20.012C20.1759 20.3629 20.1237 20.8664 20.2889 21.1604C19.7317 21.8913 19.3259 22.4983 18.9085 23.3241C18.5868 23.2063 17.006 23.2494 16.5658 23.2556L16.5691 19.9797C16.5676 19.0989 16.5169 17.5277 16.5869 16.6928Z" fill="#3C7BFF"/>
<path id="Vector_5" d="M35.9371 16.695C37.0742 16.7318 38.3956 16.6992 39.5437 16.6912C39.5071 17.7333 39.5465 18.9321 39.5296 20.0022L39.5221 23.2662C38.9352 23.2506 38.0019 23.1752 37.4602 23.3548C37.1062 22.5613 36.3366 21.4866 35.7848 20.8346C35.9306 20.591 35.9044 20.3029 35.9067 20.0209C35.9503 18.9365 35.9346 17.7847 35.9371 16.695Z" fill="#3C7BFF"/>
<path id="Vector_6" d="M6.53618 17.535C6.60098 17.845 6.5912 18.2857 6.59497 18.6137C7.34139 19.4274 7.84075 19.9625 9.04472 19.9893C9.99511 20.0104 10.9454 20.0025 11.8962 20.0021C13.4538 20.0084 15.0115 20.0009 16.5691 19.9797L16.5658 23.2556C17.006 23.2494 18.5868 23.2063 18.9085 23.3241C17.7328 25.8451 17.5458 28.5821 18.4978 31.2107C19.444 33.8287 21.3992 35.9589 23.9268 37.1255C26.3472 38.2477 29.2701 38.2887 31.7793 37.3962C32.7856 37.0382 33.441 36.5705 34.3086 36.0031C34.7518 36.4776 35.5154 37.3457 36.0025 37.6907C35.8037 37.9435 35.7394 38.0209 35.7338 38.3423C35.7245 38.8667 37.1213 39.9703 37.1636 40.2705L37.091 40.3087C36.5775 40.4041 34.9652 40.367 34.3373 40.366L29.1089 40.3642L9.5271 40.3721C6.23706 40.3482 6.51828 38.2903 6.52072 35.7972L6.52234 31.487C6.52215 26.8728 6.47471 22.144 6.53618 17.535Z" fill="#E5EEFF"/>
<path id="Vector_7" d="M20.183 20.012C20.48 19.9967 21.113 19.9711 21.3845 20.0406C20.9195 20.4458 20.7024 20.7227 20.2889 21.1604C20.1237 20.8664 20.1759 20.3629 20.183 20.012Z" fill="#7DA1EC"/>
<path id="Vector_8" d="M35.0272 20.1032C35.1931 19.9772 35.643 20.0264 35.9067 20.0209C35.9044 20.3029 35.9307 20.591 35.7848 20.8346L35.0272 20.1032Z" fill="#7DA1EC"/>
<path id="Vector_9" d="M27.387 20.0057C31.6811 19.5712 35.5106 22.7094 35.9282 27.0052C36.3458 31.301 33.1926 35.1181 28.8952 35.5188C24.6216 35.9173 20.8303 32.7854 20.415 28.5134C19.9997 24.2415 23.1167 20.4378 27.387 20.0057Z" fill="#BDCFF4"/>
<path id="Vector_10" d="M49.5969 18.295L49.6107 32.5398L49.6193 35.9196C49.626 36.6342 49.7057 37.6909 49.5735 38.3442C49.1273 40.5502 46.9439 40.4278 45.1956 40.3754C44.9006 40.3665 44.698 40.3641 44.4222 40.3095C44.6786 40.6085 45.5531 41.3606 45.8694 41.5992C45.9261 41.7528 46.083 42.1435 46.0593 42.2818C45.9506 42.9143 45.0102 43.5837 44.5873 44.0243C44.1735 44.4554 43.1403 45.7207 42.5315 45.6311C41.8932 45.537 41.1045 44.4147 40.6713 43.965C39.8363 43.1392 39.0955 42.3101 38.3197 41.4368C38.0949 41.1838 37.3918 40.3349 37.091 40.3087L37.1636 40.2705C37.1213 39.9703 35.7245 38.8667 35.7338 38.3423C35.7394 38.0209 35.8037 37.9435 36.0025 37.6907C35.5154 37.3457 34.7518 36.4776 34.3086 36.0031C35.2876 35.1848 35.6153 34.8839 36.424 33.8857C38.6658 30.4894 39.1379 27.1488 37.4602 23.3548C38.0019 23.1752 38.9352 23.2506 39.5221 23.2662L39.5296 20.0022C39.9166 19.9647 41.0167 19.997 41.4447 19.9975L45.4426 20.003C47.4957 20.008 48.4129 20.2141 49.5969 18.295Z" fill="#E5EEFF"/>
<path id="Vector_11" d="M34.3086 36.0031C35.2876 35.1848 35.6153 34.8839 36.424 33.8857C36.8555 34.2819 37.7982 35.2387 38.1836 35.5203C38.3308 35.4071 38.5951 35.2264 38.7736 35.2935C39.4557 35.5501 40.4047 36.59 40.9152 37.0733L43.2205 39.2204C43.4121 39.4021 44.2343 40.1972 44.4222 40.3095C44.6786 40.6085 45.5531 41.3606 45.8694 41.5992C45.9261 41.7528 46.083 42.1435 46.0593 42.2818C45.9506 42.9143 45.0102 43.5837 44.5873 44.0243C44.1735 44.4554 43.1403 45.7207 42.5315 45.6311C41.8932 45.537 41.1045 44.4147 40.6713 43.965C39.8363 43.1392 39.0955 42.3101 38.3197 41.4368C38.0949 41.1838 37.3918 40.3349 37.091 40.3087L37.1636 40.2705C37.1213 39.9703 35.7245 38.8667 35.7338 38.3423C35.7394 38.0209 35.8037 37.9435 36.0025 37.6907C35.5154 37.3457 34.7518 36.4776 34.3086 36.0031Z" fill="#5174C0"/>
<path id="Vector_12" d="M34.3086 36.0031C35.2876 35.1848 35.6153 34.8839 36.424 33.8857C36.8555 34.2819 37.7982 35.2387 38.1836 35.5203C37.8439 35.8782 37.4437 36.2451 37.0892 36.5983C36.765 36.9213 36.3392 37.4053 36.0025 37.6907C35.5154 37.3457 34.7518 36.4776 34.3086 36.0031Z" fill="#D9D9D9"/>
</g>
</svg>
